<?xml version="1.0" standalone="no"?>
<!DOCTYPE svg PUBLIC "-//W3C//DTD SVG 20010904//EN"
 "http://www.w3.org/TR/2001/REC-SVG-20010904/DTD/svg10.dtd">
<svg version="1.0" xmlns="http://www.w3.org/2000/svg"
 width="300.000000pt" height="300.000000pt" viewBox="0 0 300.000000 300.000000"
 preserveAspectRatio="xMidYMid meet">
<metadata>
Created by potrace 1.11, written by Peter Selinger 2001-2013
</metadata>
<g transform="translate(0.000000,300.000000) scale(0.100000,-0.100000)"
fill="#000000" stroke="none">
<path d="M1297 2830 c-93 -94 -172 -170 -175 -170 -4 0 -7 60 -6 132 0 73 -1
138 -3 143 -2 7 -112 10 -311 10 l-307 0 -2 -405 c-1 -223 -2 -430 -3 -461 l0
-56 -220 -220 c-203 -203 -220 -223 -220 -255 l0 -35 116 1 c64 0 119 -1 123
-4 3 -3 6 -342 6 -755 l0 -750 1208 -3 1207 -2 0 755 c0 712 1 755 18 756 9 1
65 1 125 2 l107 0 0 36 c0 33 -13 48 -173 203 -94 91 -240 233 -324 315 -243
238 -725 709 -845 826 -71 69 -118 107 -132 107 -14 -1 -80 -60 -189 -170z"/>
</g>
</svg>
